<mxfile host="app.diagrams.net" agent="Mozilla/5.0 (Windows NT 10.0; Win64; x64) AppleWebKit/537.36 (KHTML, like Gecko) Chrome/133.0.0.0 Safari/537.36" version="26.0.15">
  <diagram name="第 1 页" id="Mi_FXrxDKOaw2NNojvzv">
    <mxGraphModel dx="1877" dy="530" grid="1" gridSize="10" guides="1" tooltips="1" connect="1" arrows="1" fold="1" page="1" pageScale="1" pageWidth="827" pageHeight="1169" math="0" shadow="0">
      <root>
        <mxCell id="0" />
        <mxCell id="1" parent="0" />
        <mxCell id="PAXVkRBCryVE_3M80UEs-1" value="" style="rounded=0;whiteSpace=wrap;html=1;" vertex="1" parent="1">
          <mxGeometry x="70" y="100" width="150" height="260" as="geometry" />
        </mxCell>
        <mxCell id="PAXVkRBCryVE_3M80UEs-2" value="Reserved Memory&amp;nbsp;&lt;div&gt;for&lt;/div&gt;&lt;div&gt;Capture Kernel&lt;/div&gt;" style="rounded=0;whiteSpace=wrap;html=1;fillColor=#fff2cc;strokeColor=#d6b656;" vertex="1" parent="1">
          <mxGeometry x="70" y="120" width="150" height="80" as="geometry" />
        </mxCell>
        <mxCell id="PAXVkRBCryVE_3M80UEs-5" style="edgeStyle=orthogonalEdgeStyle;rounded=0;orthogonalLoop=1;jettySize=auto;html=1;exitX=0;exitY=0.5;exitDx=0;exitDy=0;entryX=0.5;entryY=1;entryDx=0;entryDy=0;" edge="1" parent="1" source="PAXVkRBCryVE_3M80UEs-3" target="PAXVkRBCryVE_3M80UEs-4">
          <mxGeometry relative="1" as="geometry" />
        </mxCell>
        <mxCell id="PAXVkRBCryVE_3M80UEs-3" value="Regular Kernel" style="rounded=0;whiteSpace=wrap;html=1;fillColor=#d5e8d4;strokeColor=#82b366;" vertex="1" parent="1">
          <mxGeometry x="70" y="280" width="150" height="60" as="geometry" />
        </mxCell>
        <mxCell id="PAXVkRBCryVE_3M80UEs-6" style="edgeStyle=orthogonalEdgeStyle;rounded=0;orthogonalLoop=1;jettySize=auto;html=1;exitX=0.5;exitY=0;exitDx=0;exitDy=0;entryX=0;entryY=0.5;entryDx=0;entryDy=0;" edge="1" parent="1" source="PAXVkRBCryVE_3M80UEs-4" target="PAXVkRBCryVE_3M80UEs-2">
          <mxGeometry relative="1" as="geometry" />
        </mxCell>
        <mxCell id="PAXVkRBCryVE_3M80UEs-4" value="start_kernel()&lt;div&gt;|&lt;/div&gt;&lt;div&gt;setup_arch()&lt;/div&gt;&lt;div&gt;|&lt;/div&gt;&lt;div&gt;reserve_crashkernel()&lt;/div&gt;" style="text;html=1;align=center;verticalAlign=middle;whiteSpace=wrap;rounded=0;" vertex="1" parent="1">
          <mxGeometry x="-83" y="180" width="200" height="100" as="geometry" />
        </mxCell>
        <mxCell id="PAXVkRBCryVE_3M80UEs-7" value="" style="rounded=0;whiteSpace=wrap;html=1;" vertex="1" parent="1">
          <mxGeometry x="351" y="100" width="150" height="260" as="geometry" />
        </mxCell>
        <mxCell id="PAXVkRBCryVE_3M80UEs-8" value="ELF Core headers" style="rounded=0;whiteSpace=wrap;html=1;fillColor=#fff2cc;strokeColor=#d6b656;" vertex="1" parent="1">
          <mxGeometry x="351" y="120" width="150" height="20" as="geometry" />
        </mxCell>
        <mxCell id="PAXVkRBCryVE_3M80UEs-25" style="edgeStyle=orthogonalEdgeStyle;rounded=0;orthogonalLoop=1;jettySize=auto;html=1;entryX=0.5;entryY=1;entryDx=0;entryDy=0;" edge="1" parent="1" source="PAXVkRBCryVE_3M80UEs-9" target="PAXVkRBCryVE_3M80UEs-24">
          <mxGeometry relative="1" as="geometry" />
        </mxCell>
        <mxCell id="PAXVkRBCryVE_3M80UEs-9" value="Regular Kernel" style="rounded=0;whiteSpace=wrap;html=1;fillColor=#d5e8d4;strokeColor=#82b366;" vertex="1" parent="1">
          <mxGeometry x="351" y="280" width="150" height="60" as="geometry" />
        </mxCell>
        <mxCell id="PAXVkRBCryVE_3M80UEs-10" value="Initramfs" style="rounded=0;whiteSpace=wrap;html=1;fillColor=#fff2cc;strokeColor=#d6b656;" vertex="1" parent="1">
          <mxGeometry x="351" y="140" width="150" height="20" as="geometry" />
        </mxCell>
        <mxCell id="PAXVkRBCryVE_3M80UEs-11" value="Capture Kernel" style="rounded=0;whiteSpace=wrap;html=1;fillColor=#fff2cc;strokeColor=#d6b656;" vertex="1" parent="1">
          <mxGeometry x="351" y="160" width="150" height="20" as="geometry" />
        </mxCell>
        <mxCell id="PAXVkRBCryVE_3M80UEs-12" value="Setup Code" style="rounded=0;whiteSpace=wrap;html=1;fillColor=#fff2cc;strokeColor=#d6b656;" vertex="1" parent="1">
          <mxGeometry x="351" y="180" width="150" height="20" as="geometry" />
        </mxCell>
        <mxCell id="PAXVkRBCryVE_3M80UEs-13" value="" style="shape=flexArrow;endArrow=classic;html=1;rounded=0;exitX=0.983;exitY=0.528;exitDx=0;exitDy=0;exitPerimeter=0;fillColor=#dae8fc;strokeColor=#6c8ebf;" edge="1" parent="1">
          <mxGeometry width="50" height="50" relative="1" as="geometry">
            <mxPoint x="221.44999999999982" y="237.27999999999997" as="sourcePoint" />
            <mxPoint x="350" y="237" as="targetPoint" />
          </mxGeometry>
        </mxCell>
        <mxCell id="PAXVkRBCryVE_3M80UEs-14" value="Kdump.service" style="edgeLabel;html=1;align=center;verticalAlign=middle;resizable=0;points=[];" vertex="1" connectable="0" parent="PAXVkRBCryVE_3M80UEs-13">
          <mxGeometry x="0.1337" y="-2" relative="1" as="geometry">
            <mxPoint x="-10" y="-29" as="offset" />
          </mxGeometry>
        </mxCell>
        <mxCell id="PAXVkRBCryVE_3M80UEs-16" value="" style="rounded=0;whiteSpace=wrap;html=1;" vertex="1" parent="1">
          <mxGeometry x="641" y="100" width="150" height="260" as="geometry" />
        </mxCell>
        <mxCell id="PAXVkRBCryVE_3M80UEs-17" value="ELF Core headers" style="rounded=0;whiteSpace=wrap;html=1;fillColor=#fff2cc;strokeColor=#d6b656;" vertex="1" parent="1">
          <mxGeometry x="641" y="120" width="150" height="20" as="geometry" />
        </mxCell>
        <mxCell id="PAXVkRBCryVE_3M80UEs-18" value="Regular Kernel" style="rounded=0;whiteSpace=wrap;html=1;fillColor=#f5f5f5;strokeColor=#666666;fontColor=#333333;" vertex="1" parent="1">
          <mxGeometry x="641" y="280" width="150" height="60" as="geometry" />
        </mxCell>
        <mxCell id="PAXVkRBCryVE_3M80UEs-19" value="Initramfs" style="rounded=0;whiteSpace=wrap;html=1;fillColor=#fff2cc;strokeColor=#d6b656;" vertex="1" parent="1">
          <mxGeometry x="641" y="140" width="150" height="20" as="geometry" />
        </mxCell>
        <mxCell id="PAXVkRBCryVE_3M80UEs-32" style="edgeStyle=orthogonalEdgeStyle;rounded=0;orthogonalLoop=1;jettySize=auto;html=1;" edge="1" parent="1" source="PAXVkRBCryVE_3M80UEs-20" target="PAXVkRBCryVE_3M80UEs-31">
          <mxGeometry relative="1" as="geometry" />
        </mxCell>
        <mxCell id="PAXVkRBCryVE_3M80UEs-20" value="Capture Kernel" style="rounded=0;whiteSpace=wrap;html=1;fillColor=#d5e8d4;strokeColor=#82b366;" vertex="1" parent="1">
          <mxGeometry x="641" y="160" width="150" height="20" as="geometry" />
        </mxCell>
        <mxCell id="PAXVkRBCryVE_3M80UEs-21" value="Setup Code" style="rounded=0;whiteSpace=wrap;html=1;fillColor=#fff2cc;strokeColor=#d6b656;" vertex="1" parent="1">
          <mxGeometry x="641" y="180" width="150" height="20" as="geometry" />
        </mxCell>
        <mxCell id="PAXVkRBCryVE_3M80UEs-28" style="edgeStyle=orthogonalEdgeStyle;rounded=0;orthogonalLoop=1;jettySize=auto;html=1;entryX=0;entryY=0.5;entryDx=0;entryDy=0;exitX=0.5;exitY=0;exitDx=0;exitDy=0;" edge="1" parent="1" source="PAXVkRBCryVE_3M80UEs-24" target="PAXVkRBCryVE_3M80UEs-20">
          <mxGeometry relative="1" as="geometry" />
        </mxCell>
        <mxCell id="PAXVkRBCryVE_3M80UEs-24" value="__crash_kexec()&lt;div&gt;|&lt;/div&gt;&lt;div&gt;&lt;span style=&quot;background-color: transparent; color: light-dark(rgb(0, 0, 0), rgb(255, 255, 255));&quot;&gt;machine_kexec()&lt;/span&gt;&lt;/div&gt;" style="text;html=1;align=center;verticalAlign=middle;whiteSpace=wrap;rounded=0;" vertex="1" parent="1">
          <mxGeometry x="520" y="210" width="110" height="70" as="geometry" />
        </mxCell>
        <mxCell id="PAXVkRBCryVE_3M80UEs-30" value="&lt;font style=&quot;color: rgb(255, 52, 45);&quot;&gt;&lt;b&gt;Crash&lt;/b&gt;&lt;/font&gt;" style="text;html=1;align=center;verticalAlign=middle;whiteSpace=wrap;rounded=0;" vertex="1" parent="1">
          <mxGeometry x="545" y="110" width="60" height="30" as="geometry" />
        </mxCell>
        <mxCell id="PAXVkRBCryVE_3M80UEs-31" value="kdump-tool-dump&lt;div&gt;|&lt;/div&gt;&lt;div&gt;&lt;span style=&quot;background-color: transparent; color: light-dark(rgb(0, 0, 0), rgb(255, 255, 255));&quot;&gt;reboot()&lt;/span&gt;&lt;/div&gt;" style="text;html=1;align=center;verticalAlign=middle;whiteSpace=wrap;rounded=0;" vertex="1" parent="1">
          <mxGeometry x="810" y="200" width="110" height="70" as="geometry" />
        </mxCell>
      </root>
    </mxGraphModel>
  </diagram>
</mxfile>
